<svg width="48" height="48" viewBox="0 0 48 48" fill="none" xmlns="http://www.w3.org/2000/svg">
<g clip-path="url(#clip0_911_14714)">
<path opacity="0.6" d="M6.16906 20.9274L6.04604 20.9053L6.06809 20.7823C7.61554 12.147 15.1165 5.87882 23.9031 5.87882C33.8962 5.87882 42.0259 14.0078 42.0259 24.0001C42.0259 33.9924 33.8962 42.1221 23.9039 42.1221L23.779 42.1221L23.7789 41.9972C23.7781 41.2501 23.7781 41.0006 23.7781 40.4198L23.7781 40.2948L23.9031 40.2948C32.8881 40.2948 40.1986 32.985 40.1986 24.0001C40.1986 15.0144 32.8881 7.70457 23.9031 7.70457C16.0023 7.70457 9.25696 13.3403 7.86517 21.1046L7.84311 21.2277L7.72006 21.2056L6.16906 20.9274Z" fill="white" stroke="white" stroke-width="0.25"/>
<path d="M3.57471 20.4822L3.57464 20.4822C2.85207 20.4826 2.31426 20.6948 1.95583 21.0261C1.59767 21.3572 1.42846 21.7983 1.42846 22.2362C1.42846 22.7186 1.61742 23.2055 1.97552 23.6822L5.06094 27.7966C5.06095 27.7966 5.06095 27.7967 5.06095 27.7967C5.57793 28.4862 6.32417 28.8892 7.11096 28.8892C7.89766 28.8892 8.64393 28.487 9.16096 27.7967L3.57471 20.4822ZM3.57471 20.4822L10.6465 20.4822C11.3694 20.4822 11.9075 20.6944 12.266 21.0258C12.6243 21.357 12.7935 21.7984 12.7935 22.2362C12.7935 22.7186 12.6045 23.2055 12.2464 23.6822L9.16101 27.7966L3.57471 20.4822ZM10.8472 22.6322L10.8473 22.6321C10.9613 22.4804 11.0139 22.3635 11.0345 22.2888C11.0245 22.2849 11.0128 22.2807 10.9994 22.2765C10.93 22.2549 10.817 22.2333 10.6475 22.2337L10.6472 22.2337L3.57546 22.2337C3.40644 22.2337 3.29291 22.2554 3.22321 22.2766C3.20989 22.2807 3.19823 22.2847 3.18814 22.2885C3.19408 22.3104 3.20359 22.3382 3.21838 22.3719C3.24901 22.4417 3.29931 22.5303 3.37625 22.633L6.46171 26.7467L6.4618 26.7468C6.66008 27.0118 6.89369 27.1392 7.11171 27.1392C7.32959 27.1392 7.56328 27.0112 7.76171 26.7467C7.76171 26.7467 7.76171 26.7467 7.76171 26.7467L10.8472 22.6322Z" fill="white" stroke="white" stroke-width="0.25"/>
</g>
<defs>
<clipPath id="clip0_911_14714">
<rect width="48" height="48" fill="white" transform="matrix(4.37114e-08 -1 -1 -4.37114e-08 48 48)"/>
</clipPath>
</defs>
</svg>
