<svg width="48" height="48" viewBox="0 0 48 48" fill="none" xmlns="http://www.w3.org/2000/svg">
<g clip-path="url(#clip0_911_14705)">
<path opacity="0.6" d="M40.1348 21.1046L40.1569 21.2277L40.2799 21.2056L41.8309 20.9274L41.954 20.9053L41.9319 20.7823C40.3845 12.147 32.8835 5.87882 24.0969 5.87882C14.1038 5.87882 5.97412 14.0078 5.97412 24.0001C5.97412 33.9924 14.1038 42.1221 24.0961 42.1221L24.221 42.1221L24.2211 41.9972C24.2219 41.2501 24.2219 41.0006 24.2219 40.4198L24.2219 40.2948L24.0969 40.2948C15.1119 40.2948 7.80137 32.985 7.80137 24.0001C7.80137 15.0144 15.1119 7.70457 24.0969 7.70457C31.9977 7.70457 38.743 13.3403 40.1348 21.1046Z" fill="white" stroke="white" stroke-width="0.25"/>
<path d="M44.4253 20.4822L44.4254 20.4822C45.1479 20.4826 45.6857 20.6948 46.0442 21.0261C46.4023 21.3572 46.5715 21.7983 46.5715 22.2362C46.5715 22.7186 46.3826 23.2055 46.0245 23.6822L42.9391 27.7966C42.4221 28.4862 41.6758 28.8892 40.889 28.8892C40.1023 28.8892 39.3561 28.487 38.839 27.7967L44.4253 20.4822ZM44.4253 20.4822L37.3535 20.4822C36.6306 20.4822 36.0925 20.6944 35.734 21.0258C35.3757 21.357 35.2065 21.7984 35.2065 22.2362C35.2065 22.7186 35.3955 23.2055 35.7536 23.6822L38.839 27.7966L44.4253 20.4822ZM44.9443 22.2189C44.9285 22.2009 44.7838 22.1087 44.4245 22.1087L37.3528 22.1087C36.9928 22.1079 36.8488 22.2002 36.8293 22.2249M44.9443 22.2189L44.8811 22.2369L44.8241 22.2532L44.8241 22.2531L44.824 22.2529L44.8239 22.2526L44.8238 22.2521L44.8235 22.2509L44.8229 22.2487L44.822 22.2448L44.8211 22.2391C44.8209 22.2381 44.8209 22.2374 44.8208 22.2369C44.8208 22.236 44.8208 22.2359 44.8208 22.2369C44.8208 22.2463 44.8187 22.2635 44.8119 22.2885M44.9443 22.2189C44.9443 22.2189 44.9458 22.2242 44.9458 22.2369C44.9458 22.3209 44.8873 22.4897 44.7238 22.7079L36.9655 22.2888M44.9443 22.2189L44.9237 22.2369L44.8502 22.3012C44.8624 22.3151 44.868 22.3148 44.8491 22.3049C44.8405 22.3004 44.8283 22.2947 44.8119 22.2885M44.8119 22.2885C44.8018 22.2847 44.7901 22.2807 44.7768 22.2766C44.7071 22.2554 44.5936 22.2337 44.4245 22.2337L37.3528 22.2337L37.3525 22.2337C37.183 22.2333 37.07 22.2549 37.0006 22.2765C36.9872 22.2807 36.9755 22.2849 36.9655 22.2888M44.8119 22.2885C44.8059 22.3104 44.7964 22.3382 44.7816 22.3719C44.751 22.4417 44.7007 22.5303 44.6238 22.633L41.5383 26.7467L41.5382 26.7468C41.3399 27.0118 41.1063 27.1392 40.8883 27.1392C40.6704 27.1392 40.4367 27.0112 40.2383 26.7467C40.2383 26.7467 40.2383 26.7467 40.2383 26.7467L37.1528 22.6322L37.1527 22.6321C37.0387 22.4804 36.9861 22.3635 36.9655 22.2888M36.9655 22.2888C36.9577 22.2608 36.9545 22.2387 36.9543 22.223L36.8293 22.2249M36.8293 22.2249C36.8308 22.3209 36.8893 22.4897 37.0528 22.7072L36.8293 22.2249Z" fill="white" stroke="white" stroke-width="0.25"/>
</g>
<defs>
<clipPath id="clip0_911_14705">
<rect width="48" height="48" fill="white" transform="translate(0 48) rotate(-90)"/>
</clipPath>
</defs>
</svg>
