<svg width="540" height="540" viewBox="0 0 540 540" fill="none" xmlns="http://www.w3.org/2000/svg">
<path d="M327.5 166.864C327.5 168.763 329.039 170.302 330.938 170.302L406.562 170.312C410.359 170.312 413.438 173.39 413.438 177.187V168.532C413.438 167.471 413.016 166.453 412.266 165.703L332.109 85.5463C331.359 84.7962 330.342 84.3748 329.281 84.3748H320.625C324.419 84.3748 327.495 87.4481 327.5 91.241V166.864Z" fill="white"/>
<path fill-rule="evenodd" clip-rule="evenodd" d="M151.875 84.3748C137.895 84.3748 126.562 95.7075 126.562 109.687V430.312C126.562 444.292 137.895 455.625 151.875 455.625H388.125C402.104 455.625 413.437 444.292 413.437 430.312V180.796C413.437 174.075 410.764 167.631 406.008 162.882L334.778 91.7734C330.032 87.0357 323.601 84.3748 316.895 84.3748H151.875ZM169.232 283.258C169.232 278.865 172.794 275.303 177.187 275.303H362.812C367.206 275.303 370.768 278.865 370.768 283.258C370.768 287.652 367.206 291.214 362.812 291.214H177.187C172.794 291.214 169.232 287.652 169.232 283.258ZM177.187 312.428C172.794 312.428 169.232 315.99 169.232 320.383C169.232 324.777 172.794 328.339 177.187 328.339H362.812C367.206 328.339 370.768 324.777 370.768 320.383C370.768 315.99 367.206 312.428 362.812 312.428H177.187ZM169.232 357.508C169.232 353.115 172.794 349.553 177.187 349.553H362.812C367.206 349.553 370.768 353.115 370.768 357.508C370.768 361.902 367.206 365.464 362.812 365.464H177.187C172.794 365.464 169.232 361.902 169.232 357.508ZM169.232 394.633C169.232 390.24 172.794 386.678 177.187 386.678H267.348C271.742 386.678 275.303 390.24 275.303 394.633C275.303 399.027 271.742 402.589 267.348 402.589H177.187C172.794 402.589 169.232 399.027 169.232 394.633Z" fill="url(#paint0_radial_2516_4685)"/>
<path fill-rule="evenodd" clip-rule="evenodd" d="M151.875 84.3748C137.895 84.3748 126.562 95.7075 126.562 109.687V430.312C126.562 444.292 137.895 455.625 151.875 455.625H388.125C402.104 455.625 413.437 444.292 413.437 430.312V180.796C413.437 174.075 410.764 167.631 406.008 162.882L334.778 91.7734C330.032 87.0357 323.601 84.3748 316.895 84.3748H151.875ZM169.232 283.258C169.232 278.865 172.794 275.303 177.187 275.303H362.812C367.206 275.303 370.768 278.865 370.768 283.258C370.768 287.652 367.206 291.214 362.812 291.214H177.187C172.794 291.214 169.232 287.652 169.232 283.258ZM177.187 312.428C172.794 312.428 169.232 315.99 169.232 320.383C169.232 324.777 172.794 328.339 177.187 328.339H362.812C367.206 328.339 370.768 324.777 370.768 320.383C370.768 315.99 367.206 312.428 362.812 312.428H177.187ZM169.232 357.508C169.232 353.115 172.794 349.553 177.187 349.553H362.812C367.206 349.553 370.768 353.115 370.768 357.508C370.768 361.902 367.206 365.464 362.812 365.464H177.187C172.794 365.464 169.232 361.902 169.232 357.508ZM169.232 394.633C169.232 390.24 172.794 386.678 177.187 386.678H267.348C271.742 386.678 275.303 390.24 275.303 394.633C275.303 399.027 271.742 402.589 267.348 402.589H177.187C172.794 402.589 169.232 399.027 169.232 394.633Z" fill="url(#paint1_radial_2516_4685)"/>
<path fill-rule="evenodd" clip-rule="evenodd" d="M151.875 84.3748C137.895 84.3748 126.562 95.7075 126.562 109.687V430.312C126.562 444.292 137.895 455.625 151.875 455.625H388.125C402.104 455.625 413.437 444.292 413.437 430.312V180.796C413.437 174.075 410.764 167.631 406.008 162.882L334.778 91.7734C330.032 87.0357 323.601 84.3748 316.895 84.3748H151.875ZM169.232 283.258C169.232 278.865 172.794 275.303 177.187 275.303H362.812C367.206 275.303 370.768 278.865 370.768 283.258C370.768 287.652 367.206 291.214 362.812 291.214H177.187C172.794 291.214 169.232 287.652 169.232 283.258ZM177.187 312.428C172.794 312.428 169.232 315.99 169.232 320.383C169.232 324.777 172.794 328.339 177.187 328.339H362.812C367.206 328.339 370.768 324.777 370.768 320.383C370.768 315.99 367.206 312.428 362.812 312.428H177.187ZM169.232 357.508C169.232 353.115 172.794 349.553 177.187 349.553H362.812C367.206 349.553 370.768 353.115 370.768 357.508C370.768 361.902 367.206 365.464 362.812 365.464H177.187C172.794 365.464 169.232 361.902 169.232 357.508ZM169.232 394.633C169.232 390.24 172.794 386.678 177.187 386.678H267.348C271.742 386.678 275.303 390.24 275.303 394.633C275.303 399.027 271.742 402.589 267.348 402.589H177.187C172.794 402.589 169.232 399.027 169.232 394.633Z" fill="url(#paint2_radial_2516_4685)"/>
<g filter="url(#filter0_i_2516_4685)">
<path fill-rule="evenodd" clip-rule="evenodd" d="M159.469 84.3748C141.295 84.3748 126.562 99.1074 126.562 117.281V422.718C126.562 440.892 141.295 455.625 159.469 455.625H380.531C398.705 455.625 413.437 440.892 413.437 422.718V177.297C413.437 172.816 411.655 168.52 408.485 165.354L329.837 86.841C328.255 85.2617 326.111 84.3748 323.876 84.3748H159.469ZM169.232 283.258C169.232 278.865 172.794 275.303 177.187 275.303H362.812C367.206 275.303 370.768 278.865 370.768 283.258C370.768 287.652 367.206 291.214 362.812 291.214H177.187C172.794 291.214 169.232 287.652 169.232 283.258ZM177.187 312.428C172.794 312.428 169.232 315.99 169.232 320.383C169.232 324.777 172.794 328.339 177.187 328.339H362.812C367.206 328.339 370.768 324.777 370.768 320.383C370.768 315.99 367.206 312.428 362.812 312.428H177.187ZM169.232 357.508C169.232 353.115 172.794 349.553 177.187 349.553H362.812C367.206 349.553 370.768 353.115 370.768 357.508C370.768 361.902 367.206 365.464 362.812 365.464H177.187C172.794 365.464 169.232 361.902 169.232 357.508ZM169.232 394.633C169.232 390.24 172.794 386.678 177.187 386.678H267.348C271.742 386.678 275.303 390.24 275.303 394.633C275.303 399.027 271.742 402.589 267.348 402.589H177.187C172.794 402.589 169.232 399.027 169.232 394.633Z" fill="white" fill-opacity="0.01"/>
</g>
<g filter="url(#filter1_i_2516_4685)">
<path d="M126.562 12.6562C126.562 5.6664 120.896 0 113.906 0H33.75C15.1104 0 0 15.1104 0 33.75V113.906C0 120.896 5.6664 126.562 12.6562 126.562C19.6461 126.562 25.3125 120.896 25.3125 113.906V33.75C25.3125 29.0901 29.0901 25.3125 33.75 25.3125H113.906C120.896 25.3125 126.562 19.6461 126.562 12.6562Z" fill="url(#paint3_radial_2516_4685)"/>
<path d="M126.562 12.6562C126.562 5.6664 120.896 0 113.906 0H33.75C15.1104 0 0 15.1104 0 33.75V113.906C0 120.896 5.6664 126.562 12.6562 126.562C19.6461 126.562 25.3125 120.896 25.3125 113.906V33.75C25.3125 29.0901 29.0901 25.3125 33.75 25.3125H113.906C120.896 25.3125 126.562 19.6461 126.562 12.6562Z" fill="white" fill-opacity="0.71"/>
<path d="M426.094 25.3125C419.104 25.3125 413.438 19.6461 413.438 12.6562C413.438 5.6664 419.104 0 426.094 0H506.25C524.89 0 540 15.1104 540 33.75V113.906C540 120.896 534.334 126.562 527.344 126.562C520.354 126.562 514.688 120.896 514.688 113.906V33.75C514.688 29.0901 510.91 25.3125 506.25 25.3125H426.094Z" fill="url(#paint4_radial_2516_4685)"/>
<path d="M426.094 25.3125C419.104 25.3125 413.438 19.6461 413.438 12.6562C413.438 5.6664 419.104 0 426.094 0H506.25C524.89 0 540 15.1104 540 33.75V113.906C540 120.896 534.334 126.562 527.344 126.562C520.354 126.562 514.688 120.896 514.688 113.906V33.75C514.688 29.0901 510.91 25.3125 506.25 25.3125H426.094Z" fill="white" fill-opacity="0.71"/>
<path d="M413.438 527.344C413.438 520.354 419.104 514.688 426.094 514.688H506.25C510.91 514.688 514.688 510.91 514.688 506.25V426.094C514.688 419.104 520.354 413.438 527.344 413.438C534.334 413.438 540 419.104 540 426.094V506.25C540 524.89 524.89 540 506.25 540H426.094C419.104 540 413.438 534.334 413.438 527.344Z" fill="url(#paint5_radial_2516_4685)"/>
<path d="M413.438 527.344C413.438 520.354 419.104 514.688 426.094 514.688H506.25C510.91 514.688 514.688 510.91 514.688 506.25V426.094C514.688 419.104 520.354 413.438 527.344 413.438C534.334 413.438 540 419.104 540 426.094V506.25C540 524.89 524.89 540 506.25 540H426.094C419.104 540 413.438 534.334 413.438 527.344Z" fill="white" fill-opacity="0.71"/>
<path d="M12.6562 413.438C19.6461 413.438 25.3125 419.104 25.3125 426.094V506.25C25.3125 510.91 29.0901 514.688 33.75 514.688H113.906C120.896 514.688 126.562 520.354 126.562 527.344C126.562 534.334 120.896 540 113.906 540H33.75C15.1104 540 0 524.89 0 506.25V426.094C0 419.104 5.6664 413.438 12.6562 413.438Z" fill="url(#paint6_radial_2516_4685)"/>
<path d="M12.6562 413.438C19.6461 413.438 25.3125 419.104 25.3125 426.094V506.25C25.3125 510.91 29.0901 514.688 33.75 514.688H113.906C120.896 514.688 126.562 520.354 126.562 527.344C126.562 534.334 120.896 540 113.906 540H33.75C15.1104 540 0 524.89 0 506.25V426.094C0 419.104 5.6664 413.438 12.6562 413.438Z" fill="white" fill-opacity="0.71"/>
</g>
<g filter="url(#filter2_i_2516_4685)">
<path d="M0 236.25C0 231.59 3.7776 227.812 8.4375 227.812H531.562C536.222 227.812 540 231.59 540 236.25V303.75C540 308.41 536.222 312.188 531.562 312.188H8.4375C3.7776 312.188 0 308.41 0 303.75V236.25Z" fill="url(#paint7_radial_2516_4685)"/>
<path d="M0 236.25C0 231.59 3.7776 227.812 8.4375 227.812H531.562C536.222 227.812 540 231.59 540 236.25V303.75C540 308.41 536.222 312.188 531.562 312.188H8.4375C3.7776 312.188 0 308.41 0 303.75V236.25Z" fill="white" fill-opacity="0.01"/>
</g>
<defs>
<filter id="filter0_i_2516_4685" x="126.562" y="84.3748" width="286.875" height="371.25" filterUnits="userSpaceOnUse" color-interpolation-filters="sRGB">
<feFlood flood-opacity="0" result="BackgroundImageFix"/>
<feBlend mode="normal" in="SourceGraphic" in2="BackgroundImageFix" result="shape"/>
<feColorMatrix in="SourceAlpha" type="matrix" values="0 0 0 0 0 0 0 0 0 0 0 0 0 0 0 0 0 0 127 0" result="hardAlpha"/>
<feOffset/>
<feGaussianBlur stdDeviation="3"/>
<feComposite in2="hardAlpha" operator="arithmetic" k2="-1" k3="1"/>
<feColorMatrix type="matrix" values="0 0 0 0 1 0 0 0 0 1 0 0 0 0 1 0 0 0 0.7 0"/>
<feBlend mode="normal" in2="shape" result="effect1_innerShadow_2516_4685"/>
</filter>
<filter id="filter1_i_2516_4685" x="0" y="0" width="540" height="540" filterUnits="userSpaceOnUse" color-interpolation-filters="sRGB">
<feFlood flood-opacity="0" result="BackgroundImageFix"/>
<feBlend mode="normal" in="SourceGraphic" in2="BackgroundImageFix" result="shape"/>
<feColorMatrix in="SourceAlpha" type="matrix" values="0 0 0 0 0 0 0 0 0 0 0 0 0 0 0 0 0 0 127 0" result="hardAlpha"/>
<feOffset/>
<feGaussianBlur stdDeviation="3"/>
<feComposite in2="hardAlpha" operator="arithmetic" k2="-1" k3="1"/>
<feColorMatrix type="matrix" values="0 0 0 0 1 0 0 0 0 1 0 0 0 0 1 0 0 0 0.7 0"/>
<feBlend mode="normal" in2="shape" result="effect1_innerShadow_2516_4685"/>
</filter>
<filter id="filter2_i_2516_4685" x="0" y="227.812" width="540" height="84.375" filterUnits="userSpaceOnUse" color-interpolation-filters="sRGB">
<feFlood flood-opacity="0" result="BackgroundImageFix"/>
<feBlend mode="normal" in="SourceGraphic" in2="BackgroundImageFix" result="shape"/>
<feColorMatrix in="SourceAlpha" type="matrix" values="0 0 0 0 0 0 0 0 0 0 0 0 0 0 0 0 0 0 127 0" result="hardAlpha"/>
<feOffset/>
<feGaussianBlur stdDeviation="16.5"/>
<feComposite in2="hardAlpha" operator="arithmetic" k2="-1" k3="1"/>
<feColorMatrix type="matrix" values="0 0 0 0 1 0 0 0 0 1 0 0 0 0 1 0 0 0 0.7 0"/>
<feBlend mode="normal" in2="shape" result="effect1_innerShadow_2516_4685"/>
</filter>
<radialGradient id="paint0_radial_2516_4685" cx="0" cy="0" r="1" gradientUnits="userSpaceOnUse" gradientTransform="translate(341.719 150.669) rotate(125.674) scale(391.719 391.931)">
<stop offset="0.0001" stop-color="white" stop-opacity="0"/>
<stop offset="1" stop-color="white" stop-opacity="0.81"/>
</radialGradient>
<radialGradient id="paint1_radial_2516_4685" cx="0" cy="0" r="1" gradientUnits="userSpaceOnUse" gradientTransform="translate(126.562 85.1828) rotate(90) scale(568.664 750.446)">
<stop stop-color="white"/>
<stop offset="1" stop-color="white" stop-opacity="0.54"/>
</radialGradient>
<radialGradient id="paint2_radial_2516_4685" cx="0" cy="0" r="1" gradientUnits="userSpaceOnUse" gradientTransform="translate(270 -450.69) rotate(90.6408) scale(754.487 277.625)">
<stop offset="0.526042" stop-color="white"/>
<stop offset="1" stop-color="white" stop-opacity="0"/>
</radialGradient>
<radialGradient id="paint3_radial_2516_4685" cx="0" cy="0" r="1" gradientUnits="userSpaceOnUse" gradientTransform="translate(565.312 -105.469) rotate(131.212) scale(858.026)">
<stop stop-color="white" stop-opacity="0.5"/>
<stop offset="1" stop-color="white" stop-opacity="0.01"/>
</radialGradient>
<radialGradient id="paint4_radial_2516_4685" cx="0" cy="0" r="1" gradientUnits="userSpaceOnUse" gradientTransform="translate(565.312 -105.469) rotate(131.212) scale(858.026)">
<stop stop-color="white" stop-opacity="0.5"/>
<stop offset="1" stop-color="white" stop-opacity="0.01"/>
</radialGradient>
<radialGradient id="paint5_radial_2516_4685" cx="0" cy="0" r="1" gradientUnits="userSpaceOnUse" gradientTransform="translate(565.312 -105.469) rotate(131.212) scale(858.026)">
<stop stop-color="white" stop-opacity="0.5"/>
<stop offset="1" stop-color="white" stop-opacity="0.01"/>
</radialGradient>
<radialGradient id="paint6_radial_2516_4685" cx="0" cy="0" r="1" gradientUnits="userSpaceOnUse" gradientTransform="translate(565.312 -105.469) rotate(131.212) scale(858.026)">
<stop stop-color="white" stop-opacity="0.5"/>
<stop offset="1" stop-color="white" stop-opacity="0.01"/>
</radialGradient>
<radialGradient id="paint7_radial_2516_4685" cx="0" cy="0" r="1" gradientUnits="userSpaceOnUse" gradientTransform="translate(270 196.875) rotate(94.5513) scale(189.034 668.222)">
<stop stop-color="white"/>
<stop offset="1" stop-color="white" stop-opacity="0"/>
</radialGradient>
</defs>
</svg>
